<?xml version="1.0" encoding="UTF-8"?>
<svg width="354px" height="38px" viewBox="0 0 354 38" version="1.1" xmlns="http://www.w3.org/2000/svg" xmlns:xlink="http://www.w3.org/1999/xlink">
    <!-- Generator: sketchtool 61.2 (101010) - https://sketch.com -->
    <title>91ABDC7A-BE41-4DBC-AEA3-40228F7DAB49</title>
    <desc>Created with sketchtool.</desc>
    <defs>
        <linearGradient x1="0%" y1="50.0009783%" x2="100.000679%" y2="50.0009783%" id="linearGradient-1">
            <stop stop-color="#CE5DCB" offset="0%"></stop>
            <stop stop-color="#C558CC" offset="20.95%"></stop>
            <stop stop-color="#AC4ACF" offset="55.25%"></stop>
            <stop stop-color="#8534D4" offset="98.45%"></stop>
            <stop stop-color="#8333D4" offset="100%"></stop>
        </linearGradient>
        <linearGradient x1="-0.000978287453%" y1="50.0009783%" x2="99.999837%" y2="50.0009783%" id="linearGradient-2">
            <stop stop-color="#FF5667" offset="2.37%"></stop>
            <stop stop-color="#FC8B82" offset="65.92%"></stop>
            <stop stop-color="#FBA28E" offset="100%"></stop>
        </linearGradient>
        <linearGradient x1="0.00111416071%" y1="49.9998913%" x2="99.9998098%" y2="49.9998913%" id="linearGradient-3">
            <stop stop-color="#FCD7B6" offset="0%"></stop>
            <stop stop-color="#FEA500" offset="50.71%"></stop>
            <stop stop-color="#FF8100" offset="100%"></stop>
        </linearGradient>
        <linearGradient x1="0.00127720862%" y1="49.9998913%" x2="100.001359%" y2="49.9998913%" id="linearGradient-4">
            <stop stop-color="#00B874" offset="0%"></stop>
            <stop stop-color="#29D3A2" offset="51.26%"></stop>
            <stop stop-color="#53DFB6" offset="68.17%"></stop>
            <stop stop-color="#9FF4D9" offset="100%"></stop>
        </linearGradient>
    </defs>
    <g id="Page-1" stroke="none" stroke-width="1" fill="none" fill-rule="evenodd">
        <g id="How-It-Works" transform="translate(-907.000000, -1699.000000)">
            <g id="Group-2" transform="translate(828.000000, 1679.000000)">
                <g id="Payment-Pie-Graphic" transform="translate(79.000000, 20.000000)">
                    <g id="NewBrand_FourPaymentPie" transform="translate(316.000000, 0.000000)" fill-rule="nonzero">
                        <path d="M0,20 C0,29.9420652 8.05935105,38 18,38 L18,38 L18,20 L0,20 Z" id="Path" fill="url(#linearGradient-1)"></path>
                        <path d="M38,20 C38.0009783,29.9420652 29.940868,38 20,38 L20,38 L20,20 L38,20 Z" id="Path" fill="url(#linearGradient-2)"></path>
                        <path d="M18,0 C8.05962119,-0.00097826087 0,8.05793478 0,18 L0,18 L18,18 L18,0 Z" id="Path" fill="url(#linearGradient-3)"></path>
                        <path d="M20,0 C29.940868,-0.00097826087 38,8.05793478 38,18 L38,18 L20,18 L20,0 Z" id="Path" fill="url(#linearGradient-4)"></path>
                    </g>
                    <g id="NewBrand_FourPaymentPie-Copy" transform="translate(207.000000, 0.000000)" fill-rule="nonzero">
                        <path d="M0,20 C0,29.9420652 8.05935105,38 18,38 L18,20 L0,20 Z" id="Path" fill="url(#linearGradient-1)"></path>
                        <path d="M38,20 C38.0009783,29.9420652 29.940868,38 20,38 L20,38 L20,20 L38,20 Z" id="Path" fill="url(#linearGradient-2)"></path>
                        <path d="M20,0 C29.940868,-0.00097826087 38,8.05793478 38,18 L38,18 L20,18 L20,0 Z" id="Path" fill="url(#linearGradient-4)"></path>
                    </g>
                    <g id="NewBrand_FourPaymentPie-Copy-2" transform="translate(113.000000, 0.000000)" fill-rule="nonzero">
                        <path d="M18,20 C18.0009783,29.9420652 9.94086796,38 0,38 L0,38 L0,20 L18,20 Z" id="Path" fill="url(#linearGradient-2)"></path>
                        <path d="M0,0 C9.94086796,-0.00097826087 18,8.05793478 18,18 L18,18 L0,18 L0,0 Z" id="Path" fill="url(#linearGradient-4)"></path>
                    </g>
                    <g id="NewBrand_FourPaymentPie-Copy-3" fill="url(#linearGradient-4)" fill-rule="nonzero">
                        <path d="M0,0 C9.94086796,-0.00097826087 18,8.05793478 18,18 L18,18 L0,18 L0,0 Z" id="Path"></path>
                    </g>
                    <line x1="40.25" y1="18.75" x2="83.75" y2="19.25" id="Line-2" stroke="#382757" stroke-width="2" stroke-linecap="round"></line>
                    <line x1="146.25" y1="18.75" x2="189.75" y2="19.25" id="Line-2-Copy" stroke="#382757" stroke-width="2" stroke-linecap="round"></line>
                    <line x1="260.25" y1="18.75" x2="303.75" y2="19.25" id="Line-2-Copy-2" stroke="#382757" stroke-width="2" stroke-linecap="round"></line>
                </g>
            </g>
        </g>
    </g>
</svg>